<?xml version="1.0" encoding="UTF-8"?>
<svg xmlns="http://www.w3.org/2000/svg" xmlns:xlink="http://www.w3.org/1999/xlink" width="13px" height="13px" viewBox="0 0 13 13" version="1.1">
<g id="surface1">
<path style=" stroke:none;fill-rule:nonzero;fill:rgb(23.137255%,53.333336%,76.47059%);fill-opacity:1;" d="M 13 11.554688 C 13 12.351562 12.351562 13 11.554688 13 L 1.445312 13 C 0.648438 13 0 12.351562 0 11.554688 L 0 1.445312 C 0 0.648438 0.648438 0 1.445312 0 L 11.554688 0 C 12.351562 0 13 0.648438 13 1.445312 Z M 13 11.554688 "/>
<path style=" stroke:none;fill-rule:nonzero;fill:rgb(100%,100%,100%);fill-opacity:1;" d="M 0.664062 4.542969 C 0.664062 4.277344 0.84375 4.039062 1.171875 4.039062 L 2.835938 4.039062 C 3.121094 4.039062 3.269531 4.257812 3.269531 4.484375 C 3.269531 4.707031 3.128906 4.933594 2.835938 4.933594 L 1.640625 4.933594 L 1.640625 5.882812 L 2.648438 5.882812 C 2.957031 5.882812 3.113281 6.105469 3.113281 6.328125 C 3.113281 6.554688 2.957031 6.78125 2.648438 6.78125 L 1.640625 6.78125 L 1.640625 8.199219 C 1.640625 8.523438 1.429688 8.707031 1.152344 8.707031 C 0.871094 8.707031 0.664062 8.523438 0.664062 8.199219 Z M 3.550781 4.542969 C 3.550781 4.234375 3.722656 4.039062 4.050781 4.039062 L 5.195312 4.039062 C 6.195312 4.039062 6.8125 4.484375 6.8125 5.507812 C 6.8125 6.222656 6.273438 6.632812 5.609375 6.734375 L 6.714844 7.917969 C 6.804688 8.015625 6.84375 8.113281 6.84375 8.207031 C 6.84375 8.457031 6.644531 8.707031 6.359375 8.707031 C 6.242188 8.707031 6.085938 8.660156 5.980469 8.535156 L 4.535156 6.789062 L 4.523438 6.789062 L 4.523438 8.199219 C 4.523438 8.523438 4.316406 8.707031 4.035156 8.707031 C 3.757812 8.707031 3.546875 8.523438 3.546875 8.199219 L 3.546875 4.542969 Z M 4.523438 6.085938 L 5.195312 6.085938 C 5.550781 6.085938 5.796875 5.871094 5.796875 5.507812 C 5.796875 5.136719 5.550781 4.933594 5.195312 4.933594 L 4.523438 4.933594 Z M 7.035156 4.601562 C 7.035156 4.277344 7.195312 4.039062 7.539062 4.039062 L 9.152344 4.039062 C 9.464844 4.039062 9.613281 4.257812 9.613281 4.484375 C 9.613281 4.707031 9.457031 4.933594 9.152344 4.933594 L 8.007812 4.933594 L 8.007812 5.882812 L 9.074219 5.882812 C 9.394531 5.882812 9.550781 6.105469 9.550781 6.332031 C 9.550781 6.554688 9.386719 6.78125 9.074219 6.78125 L 8.007812 6.78125 L 8.007812 7.769531 L 9.210938 7.769531 C 9.523438 7.769531 9.671875 7.992188 9.671875 8.21875 C 9.671875 8.4375 9.515625 8.667969 9.210938 8.667969 L 7.535156 8.667969 C 7.246094 8.667969 7.035156 8.472656 7.035156 8.179688 Z M 9.914062 4.601562 C 9.914062 4.277344 10.074219 4.039062 10.417969 4.039062 L 12.03125 4.039062 C 12.34375 4.039062 12.492188 4.257812 12.492188 4.484375 C 12.492188 4.707031 12.335938 4.933594 12.03125 4.933594 L 10.886719 4.933594 L 10.886719 5.882812 L 11.953125 5.882812 C 12.273438 5.882812 12.429688 6.105469 12.429688 6.332031 C 12.429688 6.554688 12.265625 6.78125 11.953125 6.78125 L 10.886719 6.78125 L 10.886719 7.769531 L 12.089844 7.769531 C 12.402344 7.769531 12.550781 7.992188 12.550781 8.21875 C 12.550781 8.4375 12.394531 8.667969 12.089844 8.667969 L 10.414062 8.667969 C 10.128906 8.667969 9.914062 8.472656 9.914062 8.179688 Z M 9.914062 4.601562 "/>
</g>
</svg>
