<?xml version="1.0" encoding="UTF-8"?>
<svg xmlns="http://www.w3.org/2000/svg" xmlns:xlink="http://www.w3.org/1999/xlink" width="13px" height="13px" viewBox="0 0 13 13" version="1.1">
<g id="surface1">
<path style=" stroke:none;fill-rule:nonzero;fill:rgb(30.19608%,76.47059%,100%);fill-opacity:1;" d="M 11.726562 11.164062 L 1.273438 11.164062 C 0.570312 11.164062 0 10.59375 0 9.890625 L 0 3.109375 C 0 2.40625 0.570312 1.835938 1.273438 1.835938 L 11.726562 1.835938 C 12.429688 1.835938 13 2.40625 13 3.109375 L 13 9.890625 C 13 10.59375 12.429688 11.164062 11.726562 11.164062 Z M 11.726562 11.164062 "/>
<path style=" stroke:none;fill-rule:nonzero;fill:rgb(22.745098%,67.450982%,90.196079%);fill-opacity:1;" d="M 11.726562 1.835938 L 6.5 1.835938 L 6.5 11.164062 L 11.726562 11.164062 C 12.429688 11.164062 13 10.59375 13 9.890625 L 13 3.109375 C 13 2.40625 12.429688 1.835938 11.726562 1.835938 Z M 11.726562 1.835938 "/>
<path style=" stroke:none;fill-rule:nonzero;fill:rgb(22.745098%,67.450982%,90.196079%);fill-opacity:1;" d="M 1.273438 10.316406 C 1.039062 10.316406 0.847656 10.125 0.847656 9.890625 L 0.847656 3.109375 C 0.847656 2.875 1.039062 2.683594 1.273438 2.683594 L 11.726562 2.683594 C 11.960938 2.683594 12.152344 2.875 12.152344 3.109375 L 12.152344 9.890625 C 12.152344 10.125 11.960938 10.316406 11.726562 10.316406 Z M 1.273438 10.316406 "/>
<path style=" stroke:none;fill-rule:nonzero;fill:rgb(16.862746%,62.352943%,85.09804%);fill-opacity:1;" d="M 11.726562 2.683594 L 6.5 2.683594 L 6.5 10.316406 L 11.726562 10.316406 C 11.960938 10.316406 12.152344 10.125 12.152344 9.890625 L 12.152344 3.109375 C 12.152344 2.875 11.960938 2.683594 11.726562 2.683594 Z M 11.726562 2.683594 "/>
<path style=" stroke:none;fill-rule:nonzero;fill:rgb(84.313726%,92.156863%,100%);fill-opacity:1;" d="M 3.109375 9.46875 L 2.261719 9.46875 C 2.027344 9.46875 1.835938 9.277344 1.835938 9.042969 C 1.835938 8.808594 2.027344 8.621094 2.261719 8.621094 L 3.109375 8.621094 C 3.34375 8.621094 3.53125 8.808594 3.53125 9.042969 C 3.53125 9.277344 3.34375 9.46875 3.109375 9.46875 Z M 3.109375 9.46875 "/>
<path style=" stroke:none;fill-rule:nonzero;fill:rgb(84.313726%,92.156863%,100%);fill-opacity:1;" d="M 5.652344 9.46875 L 4.804688 9.46875 C 4.570312 9.46875 4.378906 9.277344 4.378906 9.042969 C 4.378906 8.808594 4.570312 8.621094 4.804688 8.621094 L 5.652344 8.621094 C 5.886719 8.621094 6.074219 8.808594 6.074219 9.042969 C 6.074219 9.277344 5.886719 9.46875 5.652344 9.46875 Z M 5.652344 9.46875 "/>
<path style=" stroke:none;fill-rule:nonzero;fill:rgb(74.117649%,87.058824%,100%);fill-opacity:1;" d="M 8.195312 9.46875 L 7.347656 9.46875 C 7.113281 9.46875 6.925781 9.277344 6.925781 9.042969 C 6.925781 8.808594 7.113281 8.621094 7.347656 8.621094 L 8.195312 8.621094 C 8.429688 8.621094 8.621094 8.808594 8.621094 9.042969 C 8.621094 9.277344 8.429688 9.46875 8.195312 9.46875 Z M 8.195312 9.46875 "/>
<path style=" stroke:none;fill-rule:nonzero;fill:rgb(74.117649%,87.058824%,100%);fill-opacity:1;" d="M 10.738281 9.46875 L 9.890625 9.46875 C 9.65625 9.46875 9.46875 9.277344 9.46875 9.042969 C 9.46875 8.808594 9.65625 8.621094 9.890625 8.621094 L 10.738281 8.621094 C 10.972656 8.621094 11.164062 8.808594 11.164062 9.042969 C 11.164062 9.277344 10.972656 9.46875 10.738281 9.46875 Z M 10.738281 9.46875 "/>
<path style=" stroke:none;fill-rule:nonzero;fill:rgb(100%,80.000001%,60.000002%);fill-opacity:1;" d="M 10.738281 6.074219 L 8.195312 6.074219 C 7.960938 6.074219 7.773438 5.886719 7.773438 5.652344 L 7.773438 3.957031 C 7.773438 3.722656 7.960938 3.53125 8.195312 3.53125 L 10.738281 3.53125 C 10.972656 3.53125 11.164062 3.722656 11.164062 3.957031 L 11.164062 5.652344 C 11.164062 5.886719 10.972656 6.074219 10.738281 6.074219 Z M 10.738281 6.074219 "/>
<path style=" stroke:none;fill-rule:nonzero;fill:rgb(84.313726%,92.156863%,100%);fill-opacity:1;" d="M 6.5 7.773438 L 2.261719 7.773438 C 2.027344 7.773438 1.835938 7.582031 1.835938 7.347656 C 1.835938 7.113281 2.027344 6.925781 2.261719 6.925781 L 6.5 6.925781 C 6.734375 6.925781 6.925781 7.113281 6.925781 7.347656 C 6.925781 7.582031 6.734375 7.773438 6.5 7.773438 Z M 6.5 7.773438 "/>
<path style=" stroke:none;fill-rule:nonzero;fill:rgb(74.117649%,87.058824%,100%);fill-opacity:1;" d="M 6.925781 7.347656 C 6.925781 7.113281 6.734375 6.925781 6.5 6.925781 L 6.5 7.773438 C 6.734375 7.773438 6.925781 7.582031 6.925781 7.347656 Z M 6.925781 7.347656 "/>
<path style=" stroke:none;fill-rule:nonzero;fill:rgb(74.117649%,87.058824%,100%);fill-opacity:1;" d="M 10.738281 7.773438 L 8.195312 7.773438 C 7.960938 7.773438 7.773438 7.582031 7.773438 7.347656 C 7.773438 7.113281 7.960938 6.925781 8.195312 6.925781 L 10.738281 6.925781 C 10.972656 6.925781 11.164062 7.113281 11.164062 7.347656 C 11.164062 7.582031 10.972656 7.773438 10.738281 7.773438 Z M 10.738281 7.773438 "/>
<path style=" stroke:none;fill-rule:nonzero;fill:rgb(90.196079%,33.725491%,22.745098%);fill-opacity:1;" d="M 3.109375 6.074219 C 2.40625 6.074219 1.835938 5.503906 1.835938 4.804688 C 1.835938 4.101562 2.40625 3.53125 3.109375 3.53125 C 3.808594 3.53125 4.378906 4.101562 4.378906 4.804688 C 4.378906 5.503906 3.808594 6.074219 3.109375 6.074219 Z M 3.109375 6.074219 "/>
<path style=" stroke:none;fill-rule:nonzero;fill:rgb(100%,88.235295%,30.19608%);fill-opacity:1;" d="M 4.378906 6.074219 C 3.679688 6.074219 3.109375 5.503906 3.109375 4.804688 C 3.109375 4.101562 3.679688 3.53125 4.378906 3.53125 C 5.082031 3.53125 5.652344 4.101562 5.652344 4.804688 C 5.652344 5.503906 5.082031 6.074219 4.378906 6.074219 Z M 4.378906 6.074219 "/>
</g>
</svg>
